<svg width="32" height="32" viewBox="0 0 32 32" fill="none" xmlns="http://www.w3.org/2000/svg">
  <defs>
    <linearGradient id="bg32" x1="0%" y1="0%" x2="100%" y2="100%">
      <stop offset="0%" stop-color="#1e1b4b"/>
      <stop offset="100%" stop-color="#4c1d95"/>
    </linearGradient>
    <linearGradient id="palm32" x1="0%" y1="0%" x2="100%" y2="100%">
      <stop offset="0%" stop-color="#4d9fff"/>
      <stop offset="100%" stop-color="#a855f7"/>
    </linearGradient>
  </defs>
  
  <rect width="32" height="32" rx="8" fill="url(#bg32)"/>
  
  <!-- Simplified Palm Symbol -->
  <path d="M16 26 C10 26, 7 22, 6 18 C5 14, 7 10, 9 7 C10 6, 11 6, 12 7 C13 8, 13 10, 12 12 
           C13 9, 15 7, 17 7 C19 7, 20 9, 19 12 
           C20 9, 23 7, 25 8 C27 9, 27 12, 25 16 C24 20, 21 24, 16 26Z" 
        fill="url(#palm32)" opacity="0.9"/>
  
  <!-- Eye -->
  <circle cx="16" cy="17" r="3" fill="#0f0a1e" opacity="0.8"/>
  <circle cx="16" cy="17" r="1.5" fill="#00f5ff"/>
</svg>
